<svg xmlns="http://www.w3.org/2000/svg" width="92" height="32">
    <path fill="#fff" d="M9.4 29l-.7-2-.8 2h1.4zM9 26.2l1.8 4.5H10l-.4-1.4H7.8l-.5 1.4h-.6l1.7-4.5H9zm6.3 2.4s0-.3-.2-.4c0 0 0-.2-.2-.2h-.5-.4l-.4.3-.2.4v.9c0 .2 0 .3.2.4l.3.3h.8l.3-.3.3-.4V29v-.3zm-2-1v.3l.5-.4H15c.2 0 .4.2.5.4l.3.5V29.8l-.3.6-.4.3h-.6-.9l-.2-.4V32h-.6v-4.4h.6zm5 1.5h-.9l-.3.2s-.2 0-.2.2v.6h1s.2 0 .3-.2l.2-.3V29c0 .2-.2.2-.3.2zm.7 1.6h-.4v-.4l-.6.3h-1.4s0-.2-.2-.3 0-.3 0-.4v-.5l.3-.3h.3l.4-.2h.4l.4-.2h.2v-.3-.3-.2H18h-.8l-.2.6h-.5V28l.4-.3.3-.2h1.3c0 .2.2.3.3.4v2.3h.2v.5H19zm1.3-3.2v.6l.5-.5c.2-.2.4-.2.7-.2v.6H21l-.4.4-.2.4v2h-.6v-3.2h.5zm3 0v.4h-.7v2.2h.7v.6h-.9s-.2 0-.2-.2l-.2-.2V28h-.4v-.4h.5v-1h.6v1h.7zm1 0v.5c.3-.3.6-.5 1-.5h.6l.3.3.2.4v2.5H26v-2c0-.3 0-.5-.2-.6h-.5-.4l-.4.2-.2.4v2.2H24v-3.2h.4zm5 1V28s-.2 0-.3-.2-.3 0-.4 0h-.4s-.2 0-.2.2-.2.2-.2.3v.4h1.7v-.5zm.3 2c-.3.2-.6.2-1 .2H28l-.5-.4-.3-.6v-.6-.7c0-.2.2-.4.4-.5l.4-.4H29.3l.5.5.2.7v.6h-2.3v.4l.2.4c0 .2 0 .2.2.3h1l.3-.5h.5c0 .3-.2.6-.4.8zm1.5-3v.6l.6-.5c.2-.2.4-.2.7-.2v.6h-.5l-.4.4-.2.4v2h-.6v-3.2h.5zm3 .4v-.4h.6V27c0-.2 0-.4.3-.5l.5-.2h.4v.5h-.7V27.7h.5v.4h-.6v2.8h-.6V28H34zm2.7 1.7s0 .3.2.4l.3.3h.7l.3-.2.3-.3v-.5-.5c0-.2-.2-.3-.3-.4L38 28h-.4-.4l-.3.3c-.2 0-.2.2-.3.4v1zm-.5-1.2c0-.2 0-.4.3-.5l.5-.4H38.3l.5.4.3.5.2.7v.6l-.4.6-.5.3H37c-.2 0-.4-.2-.5-.3l-.3-.6v-.6-.7zm4-1v.7l.6-.5c.2-.2.4-.2.7-.2v.6H41l-.4.4-.2.4v2h-.6v-3.2h.5zm5.8 1.2v-.4l-.4-.2H45h-.3l-.3.3-.2.4v.9l.2.4s0 .2.3.3h1l.3-.3v-.4-.5-.3zm-1.8-1v.3c0-.2.2-.3.4-.4h1.2c.2 0 .4.2.5.4l.3.5V29.8l-.3.6-.5.3h-.6-.7-.2l-.2-.4V32h-.6v-4.4h.6zm5.2.8s0-.2-.2-.3L49 28H48s-.2 0-.3.2l-.3.3v.4h1.8v-.5zm.2 2c-.3.3-.6.3-1 .3H48l-.5-.4-.3-.6v-.6-.7c0-.2.2-.4.3-.5l.5-.4H49.3l.5.5.2.7v.6h-2.3v.4l.2.4c0 .2 0 .2.2.3h1c.2-.2.3-.3.3-.5h.5c0 .3-.2.6-.4.8zm1.5-.8l.3.4.3.3h.8l.3-.2.2-.3v-.5-.5l-.3-.4-.3-.3H52h-.4l-.3.3-.2.4v1zm-.5-1.2c0-.2.2-.4.3-.5l.5-.4h1.4l.5.4.3.5V29.8l-.3.6-.5.3h-1.4l-.5-.3-.3-.6v-.6-.7zm6 .2v-.4L56 28h-.8l-.3.3-.2.4V30c.2 0 .3.2.4.3h1l.3-.3v-.4c.2 0 .2-.3.2-.5v-.3zm-1.8-1v.3c0-.2.3-.3.4-.4h1.4c.2 0 .3.2.5.4v.5c.2.2.2.5.2.7v.6l-.3.6-.6.3h-.6-.6-.3c0-.2-.2-.3-.3-.4V32h-.5v-4.4h.5zm3.2 3h.4v-4.4H58v4.5zm3.4-2.2s0-.2-.2-.3L61 28h-.5-.3l-.3.2-.3.3v.4h1.8v-.5zm0 2c0 .3-.4.3-.8.3H60l-.6-.4-.2-.6v-.6-.7c0-.2 0-.4.3-.5l.5-.4H61.3l.4.5c0 .3.2.5.3.7v.6h-2.4v.4l.2.4.4.3h1l.2-.5h.6c0 .3-.3.6-.5.8zm1.3.3h.7V30h-.7v.8zm6.3-4.5v.5h-2.3v1.4h2v.5h-2v2H66v-4.4h3zm1 3.4s0 .3.2.4c0 .2.2.3.4.3h.6l.4-.2s0-.2.2-.3v-.5-.5l-.3-.4-.4-.3h-.8l-.4.3-.2.4v1zm-.5-1.2c0-.2.2-.4.3-.5l.5-.4h1.2l.5.4c.2 0 .3.3.4.5V29.8l-.3.6-.4.3h-1.4l-.5-.3-.3-.6v-.6-.7zm4-1v.7l.6-.5c.3-.2.5-.2.8-.2v.6h-.5l-.4.4c-.2 0-.3.2-.3.4v2H73v-3.2h.6zM77 31h.5v-4.5H77v4.5zm1.3 0h.5v-3.2h-.5v3.2zm0-3.8h.5v-.7h-.5v.7zm1 1v-.4h.6V27v-.5l.8-.2h.3v.5h-.2-.3V27.7h.5v.4h-.6v2.8H80V28h-.7zm4.3.5v-.3L83 28h-.4-.4l-.2.2-.2.3v.4h1.7v-.5zm.2 2c-.3.3-.6.3-1 .3h-.6l-.5-.4-.3-.6v-.6-.7c0-.2.2-.4.4-.5l.4-.4H83.5l.5.5.2.7v.6H82v.8l.4.3h.9l.3-.5h.5c0 .3-.2.6-.4.8zm1.2.3h.6V30H85v.8zM81.4 2.5c0-1 1-1.8 2-1.8s1.7.8 1.6 1.8c0 1-1 1.8-2 1.8s-1.7-.8-1.6-1.8zm.3 0c0 .8.5 1.5 1.3 1.5s1.6-.7 1.7-1.5c0-1-.5-1.5-1.3-1.5-1 0-1.6.6-1.7 1.5zm2.2 1h-.4l-.5-1H83v1h-.4l.2-2h1c.2 0 .6 0 .5.5 0 .4-.2.6-.5.6l.4 1zm-1-1.7l-.2.5h.3c.4 0 .8 0 .8-.2s-.2-.2-.4-.2H83zM25 3.6c0-.8-.5-1.5-1.5-1.5s-1.8 1-2 1.7V4c0 .7.6 1.4 1.6 1.4 1.2 0 2-.8 2-1.6v-.2zm-1 4h-2.4V8l-1.7 11.8h2.4l1.7-12zM45 10v-.3l.3-2v-.2h-.7C43.2 7.5 42 8 41 9l.2-1v-.2H38.5l-1.5 12H40l.7-5.5c.4-3.2 1.8-4.4 4-4.4h.4zm10.7 3.8c-.3 2.4-2 4-4.4 4-2 0-3.4-1.3-3.4-3.3V14c.2-2.5 2-4 4.3-4 2 0 3.5 1.2 3.5 3.2v.6zm-3-6.3c-3.6 0-7 2.6-7.4 6.3v1c0 3.2 2.5 5.4 5.7 5.4 3.5 0 7-2.6 7.3-6.3v-1c0-3.3-2.5-5.5-5.7-5.5zm12-7.3h-2.4-.2L59.7 20h2.6L64.7.4V.2zm4.7 7.5H67V8l-1.6 11.8H68l1.5-12zM69 2c-1 0-2 1-2 1.7V4c0 .7.6 1.4 1.6 1.4s1.8-.8 2-1.6v-.2C70.5 2.8 70 2 69 2zM14.4 7.6c-1.5 0-3 .6-4 2-.6-1.3-1.8-2-3.3-2C6 7.5 5 8 4 9l.2-1v-.2H1.6h-.2L0 20h2.5l1-6c0-2 .7-4 3-4 1.5 0 1.8 1 1.8 2v1.3l-1 6.8H9.8l1-6.2c0-1.8.7-4 3-4 1.6 0 1.8 1 2 2l-.2 1.4-1 6.8H17l1-7v-1.4c0-1-.2-2-.8-2.7s-1.4-1.2-2.8-1.2zM79 10l.2-2v-.2h-3.8l.4-3.2c.2-1.4 1.2-2 2.7-2H80c.2 0 .2 0 .2-.2l.3-2V.2h-2c-2.8 0-5 1.7-5.3 4.5l-2 15v.2h2.5v-.2l1.4-9.7H79zm7.4-2.5c-3.6 0-7 2.6-7.5 6.3l-.2 1c0 3.2 2.7 5.4 6 5.4 3 0 5.8-1.7 7-4.4v-.2H89c-.8 1.4-2.2 2.2-4 2.2-2 0-3.4-1.3-3.4-3.3V14c.3-2.5 2.2-4 4.6-4 1 0 2 .2 2.6 1L85 13l-.4 2.4h.2l7.4-3.4c-.5-2.8-3-4.5-5.8-4.5zm-50.2.8c-1-.5-2-.8-3.3-.8-3.8 0-7 2.8-7.6 6.3v.8c0 3.3 2.5 5.6 6 5.6 1 0 2-.3 3-.7h.2v-2.6-.2c-1 .7-2 1-3 1s-2-.3-2.6-1-1-1.3-1-2.3V14l.6-1.8c.3-.4.6-1 1-1.2.8-.7 2-1 3-1s2 .2 2.7 1c.2 0 .2 0 .2-.2l.7-2.3v-.2z"/>
</svg>